<svg xmlns="http://www.w3.org/2000/svg" viewBox="0 0 53.27 51.79">
    <defs>
        <style>
            .cls-1{fill:#fdfaf4;stroke:#fdfaf4;stroke-miterlimit:10}
        </style>
    </defs>
    <g id="Layer_2" data-name="Layer 2">
        <g id="Layer_1-2" data-name="Layer 1">
            <path class="cls-1" d="M51.57 22.26 27.84 36a2.41 2.41 0 0 1-2.41 0L1.7 22.26a2.23 2.23 0 0 1-.7-.59 2.39 2.39 0 0 0 .66 3.59L25.43 39a2.41 2.41 0 0 0 2.41 0l23.73-13.7a2.4 2.4 0 0 0 .66-3.59 2.51 2.51 0 0 1-.66.55Z"/>
            <path class="cls-1" d="M51.57 28.26 27.84 42a2.41 2.41 0 0 1-2.41 0L1.7 28.26a2.23 2.23 0 0 1-.7-.59 2.39 2.39 0 0 0 .66 3.59L25.43 45a2.41 2.41 0 0 0 2.41 0l23.73-13.7a2.4 2.4 0 0 0 .66-3.59 2.51 2.51 0 0 1-.66.55Z"/>
            <path class="cls-1" d="M51.57 34.26 27.84 48a2.41 2.41 0 0 1-2.41 0L1.7 34.26a2.23 2.23 0 0 1-.7-.59 2.39 2.39 0 0 0 .66 3.59L25.43 51a2.41 2.41 0 0 0 2.41 0l23.73-13.7a2.4 2.4 0 0 0 .66-3.59 2.51 2.51 0 0 1-.66.55ZM25.6 32.24 2.42 18.49a2.11 2.11 0 0 1 0-3.62L25.49.81a2.12 2.12 0 0 1 2.2 0L50.88 15a2.1 2.1 0 0 1 0 3.61L27.75 32.24a2.12 2.12 0 0 1-2.15 0Z"/>
        </g>
    </g>
</svg>
