<svg xmlns="http://www.w3.org/2000/svg" viewBox="0 0 242.57 226.259"><g id="Layer_2" data-name="Layer 2"><g id="Layer_1-2" data-name="Layer 1"><path d="M228.211,97.457a18.723,18.723,0,0,0-1.411-1.691V79.483c.023-1.621.05-22.169-12.768-32.556h0a3.058,3.058,0,0,0-1.719-.7c-2.765-.2-8.392,1.582-9.876,9.616l-.1.52v17.3a90.388,90.388,0,0,0-5.919-7.667A96.467,96.467,0,0,0,157.4,38.917a16.987,16.987,0,0,0-16.9-19.658h-18.21V8.868a4.5,4.5,0,1,0-2.074,0V19.259h-18.21a16.987,16.987,0,0,0-16.9,19.658,96.488,96.488,0,0,0-38.959,27c-1.931,2.237-3.737,4.569-5.434,6.973V56.361l-.1-.52c-1.484-8.034-7.111-9.812-9.876-9.616a3.061,3.061,0,0,0-1.719.7h0C16.2,57.314,16.231,77.862,16.254,79.483v15.7a18.629,18.629,0,0,0-1.968,2.292A18.245,18.245,0,0,0,0,115.259v12.889A18.246,18.246,0,0,0,14.286,145.93a17.967,17.967,0,0,0,16.974,7.4c8.661,21.17,25.751,38.514,47.447,48.485a17.054,17.054,0,0,0-.3,3.111v4.223a17.13,17.13,0,0,0,17.111,17.111H146.99A17.13,17.13,0,0,0,164.1,209.148v-4.223a17.143,17.143,0,0,0-.3-3.111c21.7-9.971,38.785-27.315,47.446-48.485a17.966,17.966,0,0,0,16.96-7.38,18.246,18.246,0,0,0,14.36-17.8V115.259A18.248,18.248,0,0,0,228.211,97.457ZM211.165,55.488c8.638,8.072,8.5,23.678,8.5,23.841V91.021a17.571,17.571,0,0,0-8.421-.942c-.34-.83-.7-1.649-1.068-2.467l-.693-30.089A2.637,2.637,0,0,1,211.165,55.488ZM102.008,27.259H140.5a9.12,9.12,0,0,1,9.109,9.071,103.5,103.5,0,0,0-56.712,0A9.121,9.121,0,0,1,102.008,27.259ZM31.889,55.488a2.637,2.637,0,0,1,1.686,2.035L32.911,86.35c-.1.206-.2.408-.293.615q-.7,1.542-1.347,3.114a17.629,17.629,0,0,0-7.877.746v-11.5C23.391,79.166,23.251,63.56,31.889,55.488ZM8,115.259a10.176,10.176,0,0,1,2.8-7.011v26.911A10.18,10.18,0,0,1,8,128.148Zm17.5,29.583a10.2,10.2,0,0,1-6.7-9.583V108.148A10.219,10.219,0,0,1,28.48,97.953c-.189.637-.358,1.281-.532,1.923a83.251,83.251,0,0,0-.011,43.662q.261.962.547,1.915A10.131,10.131,0,0,1,25.5,144.842Zm130.6,64.306a9.121,9.121,0,0,1-9.111,9.111H95.521a9.121,9.121,0,0,1-9.111-9.111v-4.175a103.164,103.164,0,0,0,69.691,0Zm4.437-14.633q-3.881,1.786-7.968,3.224a95.21,95.21,0,0,1-62.629,0q-4.084-1.434-7.969-3.224c-19.722-9.079-35.26-24.767-43.181-43.9a76.333,76.333,0,0,1-2.779-7.917q-.906-3.12-1.547-6.334a75.108,75.108,0,0,1,.007-29.309q.637-3.219,1.543-6.348.846-2.916,1.919-5.744c.276-.729.567-1.451.865-2.171a78.73,78.73,0,0,1,7.35-13.707A87.29,87.29,0,0,1,88.121,46.328q4.1-1.539,8.4-2.7a95.533,95.533,0,0,1,49.465,0q4.294,1.158,8.4,2.7a87.265,87.265,0,0,1,42.032,32.851,78.651,78.651,0,0,1,7.29,13.615c.3.72.59,1.442.866,2.171q1.071,2.827,1.919,5.744.919,3.169,1.559,6.437a75.132,75.132,0,0,1,.009,29.132q-.642,3.258-1.565,6.422a76.338,76.338,0,0,1-2.78,7.917C195.8,169.748,180.26,185.436,160.538,194.515Zm53.489-49.062q.288-.969.554-1.947a83.241,83.241,0,0,0-.01-43.6c-.177-.652-.348-1.307-.541-1.954a10.136,10.136,0,0,1,3.012.624,10.2,10.2,0,0,1,6.666,9.571v27.111a10.218,10.218,0,0,1-9.681,10.194Zm20.543-17.305a10.179,10.179,0,0,1-2.862,7.076V108.182a10.183,10.183,0,0,1,2.862,7.077Z" style="fill:#78c6ee"/><path d="M120.826,188.366h0c-28.908,0-68-21.792-68-48.672h0c0-26.88,23.436-48.672,52.344-48.672h31.313c28.908,0,52.343,21.792,52.343,48.672h0C188.826,166.574,149.735,188.366,120.826,188.366Z" style="fill:#131313"/><path d="M120.783,171.766h0c-4.664,0-13.111-2.892-13.111-7.556h0a8.444,8.444,0,0,1,8.444-8.444h9.333a8.445,8.445,0,0,1,8.445,8.444h0C133.894,168.874,125.447,171.766,120.783,171.766Z" style="fill:#78c6ee"/><ellipse cx="92.441" cy="126.998" rx="18.667" ry="23.75" style="fill:#78c6ee"/><ellipse cx="92.441" cy="126.998" rx="11.47" ry="14.593" style="fill:#fff"/><ellipse cx="148.283" cy="126.998" rx="18.667" ry="23.75" style="fill:#78c6ee"/><ellipse cx="148.283" cy="126.998" rx="11.47" ry="14.593" style="fill:#fff"/><path d="M73.507,60.527a164.233,164.233,0,0,1,20.611-3.964c.423,3.074.635,4.611,1.058,7.685-6.2.854-9.294,1.41-15.428,2.778l.845,3.786c4.291-.958,6.449-1.372,10.777-2.072,2.886-.467,4.511.632,4.863,3.194.635,4.611.952,6.916,1.586,11.527.353,2.562-.768,4.006-3.352,4.424a138.644,138.644,0,0,0-17.3,3.755l-2.047-7.483c5.581-1.527,8.4-2.172,14.06-3.226-.284-1.525-.426-2.288-.709-3.813-4.135.769-6.194,1.216-10.289,2.232-2.73.678-4.427-.181-5.109-2.675C71.842,72.185,71.228,69.94,70,65.451,69.317,62.956,70.479,61.279,73.507,60.527Z" style="fill:#78c6ee"/><path d="M117.641,62.511l.274,15.512c2.458-.043,3.687-.043,6.144,0,.083-4.653.124-6.98.206-11.634,3.5.062,5.244.134,8.736.36l-1,15.483c-.168,2.58-1.554,3.771-4.161,3.663-5.476-.226-8.22-.226-13.695,0-2.609.108-3.994-1.083-4.161-3.663-.6-9.29-.905-13.935-1.508-23.224-.167-2.581,1.294-3.989,4.389-4.117a164.239,164.239,0,0,1,20.894.246c-.2,3.1-.3,4.645-.5,7.742C127.015,62.474,123.887,62.4,117.641,62.511Z" style="fill:#78c6ee"/><path d="M173,61.709c-2.865,10.476-4.3,15.714-7.164,26.19-.683,2.494-2.291,3.378-4.842,2.745-5.357-1.329-8.059-1.881-13.485-2.759-2.584-.418-3.705-1.862-3.352-4.424,1.48-10.759,2.221-16.139,3.7-26.9,3.69.508,5.531.8,9.2,1.488-1.7,9.152-2.556,13.728-4.259,22.88,2.426.452,3.637.7,6.05,1.238,2.027-9.086,3.041-13.629,5.069-22.714C167.564,60.269,169.382,60.72,173,61.709Z" style="fill:#78c6ee"/></g></g></svg>