<svg xmlns="http://www.w3.org/2000/svg" viewBox="0 0 18.44 18.44">
    <defs>
        <style>
            .cls-2{fill:#fdfaf4}
        </style>
    </defs>
    <g id="Layer_2" data-name="Layer 2">
        <g id="Layer_1-2" data-name="Layer 1">
            <path style="fill:none;stroke:#fdfaf4;stroke-miterlimit:10" d="M.5.5h17.44v17.44H.5z"/>
            <path class="cls-2" d="M5.76 6.67a1 1 0 0 1-.69-.26.82.82 0 0 1-.27-.63.8.8 0 0 1 .27-.63 1 1 0 0 1 .69-.25 1 1 0 0 1 .69.25.8.8 0 0 1 .27.63.82.82 0 0 1-.27.63 1 1 0 0 1-.69.26ZM4.99 7.59h1.54v5.95H4.99zM7.81 13.54V7.59h1.36l.12 1a2.13 2.13 0 0 1 .79-.84 2.34 2.34 0 0 1 1.23-.31 2.18 2.18 0 0 1 1.69.7 3 3 0 0 1 .61 2v3.36h-1.5v-3.17a1.89 1.89 0 0 0-.32-1.18 1.14 1.14 0 0 0-1-.41 1.36 1.36 0 0 0-1.06.46 1.8 1.8 0 0 0-.41 1.27v3.07Z"/>
        </g>
    </g>
</svg>
